<svg width="576" height="73" viewBox="0 0 576 73" fill="none" xmlns="http://www.w3.org/2000/svg">
<g clip-path="url(#clip0_53_853)">
<path d="M0 71.1571L34.9116 0H42.3238L77.6487 71.1571H68.0046L58.3605 52.0132H18.9024L9.50632 71.1571H0ZM23.008 43.7065H54.3651L38.6315 12.1575L23.0356 43.7065H23.008Z" fill="#CFD641"/>
<path d="M88.0925 71.1571V0H128.956C136.01 0 141.493 1.73286 145.434 5.22607C149.346 8.69179 151.33 13.5603 151.33 19.8041C151.33 24.8101 149.787 29.211 146.701 32.9518C143.615 36.6925 139.509 39.003 134.412 39.8832L152.267 71.1846H142.485L124.63 40.0207H96.9926V71.1846H88.1201L88.0925 71.1571ZM96.9375 31.6865H128.405C137.498 31.6865 142.017 27.8082 142.017 20.0791C142.017 16.3934 140.859 13.4778 138.572 11.3598C136.285 9.2419 133.006 8.19668 128.791 8.19668H96.91V31.6865H96.9375Z" fill="#CFD641"/>
<path d="M167.449 71.1571V0H209.635C223.826 0 230.935 5.88621 230.935 17.6861C230.935 23.6824 228.758 28.0283 224.459 30.7513C232.119 35.1522 235.977 41.4785 235.977 49.7577C235.977 56.3591 233.855 61.5852 229.64 65.4084C225.424 69.2317 219.5 71.1571 211.922 71.1571H167.477H167.449ZM176.294 28.1108H210.407C218.067 28.1108 221.924 24.8101 221.924 18.2087C221.924 11.6074 218.094 8.16918 210.407 8.16918H176.294V28.1108ZM176.294 62.9879H213.603C217.736 62.9879 220.96 61.8052 223.247 59.4122C225.534 57.0467 226.691 53.7735 226.691 49.6477C226.691 45.5219 225.534 42.3587 223.247 39.9382C220.96 37.5177 217.736 36.3075 213.603 36.3075H176.294V62.9879Z" fill="#CFD641"/>
<path d="M253.943 71.4322V0H262.926V71.4322H253.943Z" fill="#CFD641"/>
<path d="M300.371 71.1571V8.19668H270.337V0H339.251V8.19668H309.216V71.1846H300.344L300.371 71.1571Z" fill="#CFD641"/>
<path d="M346.388 71.1571V0H387.251C394.305 0 399.789 1.73286 403.729 5.22607C407.642 8.69179 409.626 13.5603 409.626 19.8041C409.626 24.8101 408.083 29.211 404.996 32.9518C401.91 36.6925 397.805 39.003 392.707 39.8832L410.562 71.1846H400.781L382.925 40.0207H355.288V71.1846H346.415L346.388 71.1571ZM355.26 31.6865H386.728C395.821 31.6865 400.34 27.8082 400.34 20.0791C400.34 16.3934 399.182 13.4778 396.895 11.3598C394.608 9.2419 391.329 8.19668 387.114 8.19668H355.233V31.6865H355.26Z" fill="#CFD641"/>
<path d="M432.744 0V46.072C432.744 53.471 434.122 58.422 436.905 60.925C439.688 63.428 445.116 64.6933 453.245 64.6933C461.373 64.6933 466.802 63.428 469.585 60.925C472.368 58.422 473.745 53.471 473.745 46.072V0H482.618V48.465C482.618 57.1843 480.358 63.4555 475.812 67.2788C471.265 71.1021 463.743 73.0275 453.272 73.0275C442.802 73.0275 435.252 71.1021 430.733 67.2788C426.186 63.4555 423.927 57.1843 423.927 48.465V0H432.799H432.744Z" fill="#CFD641"/>
<path d="M501.934 71.1571V0H510.145L538.967 43.569L567.927 0H576.001V71.1571H567.266V15.5682L538.967 57.6793L510.669 15.5682V71.1571H501.934Z" fill="#CFD641"/>
</g>
<defs>
<clipPath id="clip0_53_853">
<rect width="576" height="73" fill="white"/>
</clipPath>
</defs>
</svg>
