<svg width="105" height="15" viewBox="0 0 105 15" fill="none" xmlns="http://www.w3.org/2000/svg">
<g clip-path="url(#clip0_53_825)">
<path d="M0.361954 13.7758L6.67265 0.89045H8.01249L14.3979 13.7758H12.6546L10.9113 10.3092H3.7788L2.08034 13.7758H0.361954ZM4.52094 8.80497H10.1891L7.34507 3.09197L4.52592 8.80497H4.52094Z" fill="white"/>
<path d="M16.2858 13.7758V0.890451H23.6723C24.9474 0.890451 25.9386 1.20424 26.6508 1.83681C27.3581 2.46439 27.7167 3.346 27.7167 4.47664C27.7167 5.38315 27.4378 6.18008 26.88 6.85747C26.3221 7.53487 25.58 7.95326 24.6585 8.11264L27.8861 13.7808H26.1179L22.8903 8.13755H17.8946V13.7808H16.2907L16.2858 13.7758ZM17.8846 6.62836H23.5727C25.2164 6.62836 26.0332 5.92606 26.0332 4.52645C26.0332 3.85902 25.824 3.33105 25.4106 2.94753C24.9972 2.56401 24.4045 2.37474 23.6424 2.37474H17.8796V6.62836H17.8846Z" fill="white"/>
<path d="M30.6304 13.7758V0.890451H38.2561C40.8212 0.890451 42.1062 1.95635 42.1062 4.09312C42.1062 5.17894 41.7127 5.96591 40.9357 6.45901C42.3204 7.25594 43.0177 8.40153 43.0177 9.90076C43.0177 11.0962 42.6342 12.0425 41.8721 12.7348C41.1101 13.4272 40.0392 13.7758 38.6695 13.7758H30.6354H30.6304ZM32.2293 5.98085H38.3955C39.7802 5.98085 40.4775 5.38315 40.4775 4.18775C40.4775 2.99236 39.7852 2.36976 38.3955 2.36976H32.2293V5.98085ZM32.2293 12.2965H38.9733C39.7204 12.2965 40.3032 12.0824 40.7166 11.649C41.13 11.2207 41.3392 10.628 41.3392 9.88083C41.3392 9.13371 41.13 8.56092 40.7166 8.1226C40.3032 7.68429 39.7204 7.46514 38.9733 7.46514H32.2293V12.2965Z" fill="white"/>
<path d="M46.2653 13.8256V0.890451H47.889V13.8256H46.2653Z" fill="white"/>
<path d="M54.6578 13.7758V2.37474H49.2287V0.890451H61.6857V2.37474H56.2567V13.7808H54.6528L54.6578 13.7758Z" fill="white"/>
<path d="M62.9758 13.7758V0.890451H70.3624C71.6375 0.890451 72.6287 1.20424 73.3409 1.83681C74.0482 2.46439 74.4068 3.346 74.4068 4.47664C74.4068 5.38315 74.1279 6.18008 73.57 6.85747C73.0122 7.53487 72.27 7.95326 71.3486 8.11264L74.5762 13.7808H72.808L69.5804 8.13755H64.5846V13.7808H62.9808L62.9758 13.7758ZM64.5797 6.62836H70.2678C71.9114 6.62836 72.7283 5.92606 72.7283 4.52645C72.7283 3.85902 72.5191 3.33105 72.1057 2.94753C71.6923 2.56401 71.0996 2.37474 70.3375 2.37474H64.5747V6.62836H64.5797Z" fill="white"/>
<path d="M78.5858 0.890451V9.23333C78.5858 10.5732 78.8348 11.4697 79.3379 11.923C79.841 12.3762 80.8222 12.6053 82.2915 12.6053C83.7609 12.6053 84.7421 12.3762 85.2452 11.923C85.7482 11.4697 85.9973 10.5732 85.9973 9.23333V0.890451H87.6011V9.66666C87.6011 11.2456 87.1927 12.3812 86.3708 13.0735C85.549 13.7659 84.1892 14.1145 82.2965 14.1145C80.4038 14.1145 79.0391 13.7659 78.2222 13.0735C77.4004 12.3812 76.9919 11.2456 76.9919 9.66666V0.890451H78.5958H78.5858Z" fill="white"/>
<path d="M91.0927 13.7758V0.890451H92.577L97.7869 8.78007L103.022 0.890451H104.481V13.7758H102.902V3.7096L97.7869 11.3352L92.6716 3.7096V13.7758H91.0927Z" fill="white"/>
</g>
<defs>
<clipPath id="clip0_53_825">
<rect width="104.119" height="13.2191" fill="white" transform="translate(0.361954 0.89045)"/>
</clipPath>
</defs>
</svg>
