<svg width="39" height="31" viewBox="0 0 39 31" fill="none" xmlns="http://www.w3.org/2000/svg">
<g clip-path="url(#clip0_53_820)">
<path d="M37.8726 0.385593H0.340271V30.6425H37.8726V0.385593Z" stroke="white" stroke-width="0.775" stroke-miterlimit="10"/>
<path d="M12.7192 17.3644L5.93903 30.6007C5.93903 30.6007 5.93036 30.6065 5.92457 30.6123C5.80025 30.6239 4.5136 30.6123 4.49626 30.6123H0.506218C0.506218 30.6123 0.483087 30.5978 0.491761 30.5863L19.164 0.6975L37.5875 30.38C37.4325 30.6125 37.1427 30.6096 37.1225 30.6125L12.6325 17.4375" stroke="white" stroke-width="0.775" stroke-miterlimit="10"/>
<path d="M13.8399 15.3231L28.6927 21.4103C28.6927 21.4103 27.2991 18.928 27.2962 18.9222L19.3277 4.60964L12.71 17.36" stroke="white" stroke-width="0.775" stroke-miterlimit="10"/>
<path d="M9.80361 15.5835L0.294022 10.3208M0.387491 9.92L10.7144 14.1108" stroke="white" stroke-width="0.775" stroke-miterlimit="10"/>
</g>
<defs>
<clipPath id="clip0_53_820">
<rect width="38.285" height="31" fill="white"/>
</clipPath>
</defs>
</svg>
